<svg viewBox="0 0 62 61" fill="none" xmlns="http://www.w3.org/2000/svg">
  <path fill-rule="evenodd" clip-rule="evenodd" d="M30.7132 0C36.7863 0 42.7231 1.78879 47.7727 5.14018C52.8224 8.49156 56.7581 13.255 59.0822 18.8281C61.4062 24.4013 62.0143 30.5338 60.8295 36.4502C59.6447 42.3667 56.7202 47.8013 52.4259 52.0667C48.1315 56.3322 42.6602 59.2371 36.7037 60.4139C30.7473 61.5908 24.5732 60.9868 18.9624 58.6783C13.3515 56.3698 8.55585 52.4606 5.18179 47.4449C1.80773 42.4292 0.00683594 36.5323 0.00683594 30.5C0.00683594 22.4109 3.24196 14.6531 9.00052 8.93324C14.7591 3.21338 22.5694 0 30.7132 0Z" fill="white"/>
  <path fill-rule="evenodd" clip-rule="evenodd" d="M30.7132 6.54918L46.8703 30.5305L30.7132 38.6158L14.5561 30.5L22.6346 18.5079L30.7132 6.54918ZM30.7132 41.846L15.4521 33.7579L30.7132 54.4508L45.9742 33.7579L30.7132 41.846Z" fill="#343434">
  <path fill-rule="evenodd" clip-rule="evenodd" d="M30.7132 6.54918L38.7917 18.5079L46.8703 30.5L30.7132 24.4416V6.54918Z" fill="#343434" />
  <path fill-rule="evenodd" clip-rule="evenodd" d="M30.7132 41.846L46.005 33.7579L30.7132 54.4813V41.846Z" fill="#313131"/>
  <path fill-rule="evenodd" clip-rule="evenodd" d="M30.7132 24.4416L46.8703 30.5L30.7132 38.5853V24.4416Z" fill="#151515"/>
  <path fill-rule="evenodd" clip-rule="evenodd" d="M30.7132 6.54918L22.6346 18.5079L14.5561 30.5L30.7132 24.4416V6.54918Z" fill="#8C8C8C"/>
  <path fill-rule="evenodd" clip-rule="evenodd" d="M30.7132 41.846L15.4521 33.7579L30.7132 54.4813V41.846Z" fill="#8A8A8A"/>
  <path fill-rule="evenodd" clip-rule="evenodd" d="M30.7132 24.4416L14.5561 30.5L30.7132 38.5853V24.4416Z" fill="#353535"/>
</svg>
