<svg width="23" height="16" viewBox="0 0 23 16" fill="none" xmlns="http://www.w3.org/2000/svg">
<path d="M21.2041 0.0107422C22.2128 0.113005 23 0.964349 23 2V14C23 15.0357 22.2128 15.887 21.2041 15.9893L21 16H2L1.7959 15.9893C0.787223 15.887 0 15.0357 0 14V2C0 0.964349 0.787223 0.113005 1.7959 0.0107422L2 0H21L21.2041 0.0107422ZM3.40137 14H19.5986L15.0322 9.41113C13.9082 10.4521 12.7873 11.1265 11.5264 11.1172C10.2735 11.1079 9.13789 10.422 7.98438 9.39453L3.40137 14ZM2 12.5713L6.5498 7.99902L2 3.42676V12.5713ZM16.4492 7.99902L21 12.5713V3.42578L16.4492 7.99902ZM8.66602 7.28906L9.16699 7.76758C10.2768 8.78328 10.9826 9.113 11.541 9.11719C12.1608 9.12178 12.9644 8.72308 14.3154 7.30859L14.3301 7.29395L19.5986 2H3.40137L8.66602 7.28906Z" fill="#888888" style="fill:#888888;fill:color(display-p3 0.5337 0.5337 0.5337);fill-opacity:1;"/>
</svg>
