<svg width="25" height="16" viewBox="0 0 25 16" fill="none" xmlns="http://www.w3.org/2000/svg">
<path fill-rule="evenodd" clip-rule="evenodd" d="M0.0855403 8.1458C0.100314 8.16502 0.0707668 8.12751 0.0855403 8.1458C-0.0300482 7.98766 -0.0271391 7.79963 0.0860603 7.63964C0.0943524 7.62794 0.102802 7.61577 0.111364 7.60333C3.51093 2.6401 7.72669 0 12.0846 0C16.438 0 20.65 2.633 24.0459 7.58624C24.1104 7.68021 24.1429 7.77679 24.1429 7.89239C24.1429 8.01366 24.1051 8.11562 24.0373 8.21424C20.6423 13.158 16.434 15.7857 12.0846 15.7857C7.71561 15.7857 3.4888 13.1331 0.0855403 8.1458ZM2.72916 7.29161C2.44966 7.63908 2.44966 8.14561 2.72915 8.49318C5.6403 12.1126 8.91819 13.8124 12.0846 13.8124C15.2511 13.8124 18.529 12.1126 21.4402 8.49318C21.7197 8.14561 21.7197 7.63908 21.4402 7.29161C18.529 3.67227 15.2511 1.97334 12.0846 1.97334C8.91819 1.97334 5.6403 3.67227 2.72916 7.29161Z" fill="#3C3C3C" style="fill:#3C3C3C;fill:color(display-p3 0.2356 0.2356 0.2356);fill-opacity:1;"/>
<path d="M15.3203 5.38477L9.32031 10.3848" stroke="#3C3C3C" style="stroke:#3C3C3C;stroke:color(display-p3 0.2356 0.2356 0.2356);stroke-opacity:1;" stroke-width="2" stroke-linecap="round"/>
<path d="M9.32031 5.38477L15.3203 10.3848" stroke="#3C3C3C" style="stroke:#3C3C3C;stroke:color(display-p3 0.2356 0.2356 0.2356);stroke-opacity:1;" stroke-width="2" stroke-linecap="round"/>
</svg>
