<svg width="25" height="16" viewBox="0 0 25 16" fill="none" xmlns="http://www.w3.org/2000/svg">
<path fill-rule="evenodd" clip-rule="evenodd" d="M15.4793 9.31384C15.7008 8.81176 15.8246 8.25294 15.8246 8.00149C15.8246 5.82194 14.1313 4.05478 12.0427 4.05478C9.95426 4.05478 8.26094 5.82194 8.26094 8.00149C8.26094 10.1809 10.1519 11.6108 12.0427 11.6108C13.2523 11.6108 14.3289 11.0193 15.0194 10.0981C15.2004 9.85724 15.3556 9.59417 15.4793 9.31384ZM12.0427 9.63754C12.5154 9.63754 12.9476 9.45637 13.2799 9.15672C13.6807 8.79541 13.8571 8.26065 13.8571 8.00149C13.8571 6.91171 13.0879 6.02809 12.0427 6.02809C10.9976 6.02809 10.1429 6.91023 10.1429 8C10.1429 8.75251 10.9976 9.63754 12.0427 9.63754Z" fill="#3C3C3C" style="fill:#3C3C3C;fill:color(display-p3 0.2356 0.2356 0.2356);fill-opacity:1;"/>
<path fill-rule="evenodd" clip-rule="evenodd" d="M0.0855403 8.1458C0.100314 8.16502 0.0707668 8.12751 0.0855403 8.1458C-0.0300482 7.98766 -0.0271391 7.79963 0.0860603 7.63964C0.0943524 7.62794 0.102802 7.61577 0.111364 7.60333C3.51093 2.6401 7.72669 0 12.0846 0C16.438 0 20.65 2.633 24.0459 7.58624C24.1104 7.68021 24.1429 7.77679 24.1429 7.89239C24.1429 8.01366 24.1051 8.11562 24.0373 8.21424C20.6423 13.158 16.434 15.7857 12.0846 15.7857C7.71561 15.7857 3.4888 13.1331 0.0855403 8.1458ZM2.72916 7.29161C2.44966 7.63908 2.44966 8.14561 2.72915 8.49318C5.6403 12.1126 8.91819 13.8124 12.0846 13.8124C15.2511 13.8124 18.529 12.1126 21.4402 8.49318C21.7197 8.14561 21.7197 7.63908 21.4402 7.29161C18.529 3.67227 15.2511 1.97334 12.0846 1.97334C8.91819 1.97334 5.6403 3.67227 2.72916 7.29161Z" fill="#3C3C3C" style="fill:#3C3C3C;fill:color(display-p3 0.2356 0.2356 0.2356);fill-opacity:1;"/>
</svg>
