<svg width="55" height="55" viewBox="0 0 55 55" fill="none" xmlns="http://www.w3.org/2000/svg">
<path d="M27.4688 0.301758C12.4647 0.301758 0.301758 12.4647 0.301758 27.4688C0.301758 42.4728 12.4647 54.6357 27.4688 54.6357C42.4728 54.6357 54.6357 42.4728 54.6357 27.4688C54.6357 12.4647 42.4728 0.301758 27.4688 0.301758ZM27.4688 13.5876C32.8412 13.5876 37.2126 17.9591 37.2126 23.3315C37.2126 28.7045 32.8412 33.0754 27.4688 33.0754C22.0957 33.0754 17.7249 28.7045 17.7249 23.3315C17.7249 17.9591 22.0957 13.5876 27.4688 13.5876ZM27.4688 50.9187C20.7464 50.9187 14.7166 47.9696 10.5908 43.2981C12.5088 39.8267 15.5074 36.9736 19.0729 35.2439C20.2858 34.6559 21.7015 34.6656 22.9578 35.2687C24.3723 35.9485 25.89 36.2926 27.4694 36.2926C29.0481 36.2926 30.5664 35.9479 31.9809 35.2687C33.2384 34.665 34.6541 34.6559 35.8658 35.2439C39.4313 36.973 42.4293 39.8267 44.3473 43.2981C40.2209 47.969 34.1911 50.9187 27.4688 50.9187Z" fill="#5D00FF" style="fill:#5D00FF;fill:color(display-p3 0.3647 0.0000 1.0000);fill-opacity:1;"/>
<path d="M27.4688 13.5876C32.8412 13.5876 37.2126 17.9591 37.2126 23.3315C37.2126 28.7045 32.8412 33.0754 27.4688 33.0754C22.0957 33.0754 17.7249 28.7045 17.7249 23.3315C17.7249 17.9591 22.0957 13.5876 27.4688 13.5876Z" fill="white" style="fill:white;fill-opacity:1;"/>
<path d="M27.4688 50.9187C20.7464 50.9187 14.7166 47.9696 10.5908 43.2981C12.5088 39.8267 15.5074 36.9736 19.0729 35.2439C20.2858 34.6559 21.7015 34.6656 22.9578 35.2687C24.3723 35.9485 25.89 36.2926 27.4694 36.2926C29.0481 36.2926 30.5664 35.9479 31.9809 35.2687C33.2384 34.665 34.6541 34.6559 35.8658 35.2439C39.4313 36.973 42.4293 39.8267 44.3473 43.2981C40.2209 47.969 34.1911 50.9187 27.4688 50.9187Z" fill="white" style="fill:white;fill-opacity:1;"/>
</svg>
