<svg width="324" height="184" viewBox="0 0 324 184" fill="none" xmlns="http://www.w3.org/2000/svg">
<path d="M101.464 125.681L59.9587 69.8553L4.46111 111.117M223.465 104.324L264.97 160.149L320.468 118.888M134.156 7.46165C154.214 2.26976 175.355 2.82665 195.177 9.06905C214.998 15.3114 232.719 27.0011 246.299 42.7865C259.88 58.5719 268.781 77.8217 272.006 98.3674C275.23 118.913 272.631 139.912 264.522 158.993M190.772 222.553C170.714 227.745 149.573 227.188 129.751 220.946C109.93 214.703 92.2289 203.025 78.6484 187.239C65.068 171.454 56.1556 152.191 52.9311 131.645C49.7066 111.099 52.2981 90.0933 60.4065 71.0122" stroke="white" style="stroke:white;stroke-opacity:1;" stroke-width="7" stroke-linecap="round" stroke-linejoin="round"/>
</svg>
