<svg width="714" height="742" viewBox="0 0 714 742" fill="none" xmlns="http://www.w3.org/2000/svg">
<g clip-path="url(#clip0_2357_23)">
<mask id="mask0_2357_23" style="mask-type:luminance" maskUnits="userSpaceOnUse" x="0" y="0" width="731" height="742">
<path d="M730.367 0H0V742H730.367V0Z" fill="white" style="fill:white;fill-opacity:1;"/>
</mask>
<g mask="url(#mask0_2357_23)">
<path d="M162.265 287.565L161.778 288.361C151.448 305.637 134.88 357.673 156.068 426.245L159.021 435.804L148.678 437.083L49.8252 449.303L41.7929 450.295L40.0093 442.745C17.7412 348.469 39.8407 260.812 53.986 228.121L57.8911 219.096L66.7064 224.039L159.134 275.87L166.87 280.208L162.265 287.565Z" fill="white" stroke="#232323" style="fill:white;fill-opacity:1;stroke:#232323;stroke:color(display-p3 0.1373 0.1373 0.1373);stroke-opacity:1;" stroke-width="17"/>
<path d="M64.1312 381.645C133.582 409.141 170.772 424.523 222.903 450.991L241.611 460.49L221.414 466.602C201.683 472.572 190.753 476.241 181.775 480.394C195.233 500.378 230.99 536.044 295.111 554.873L305.08 557.8L300.482 566.746L256.534 652.246L252.962 659.193L245.391 656.443C156.576 624.181 94.4915 563.947 70.1407 532.458C55.388 538.489 45.4792 543.755 28.9858 554.103L12.3828 564.52L15.3074 545.746C19.3313 519.914 26.0011 480.983 32.9394 448.152C36.4019 431.768 39.9704 416.714 43.3499 405.521C45.0275 399.965 46.7438 395.072 48.4836 391.364C49.3424 389.534 50.3545 387.671 51.5646 386.086C52.5252 384.828 54.7684 382.16 58.5704 381.252L61.4192 380.571L64.1312 381.645Z" fill="white" stroke="#232323" style="fill:white;fill-opacity:1;stroke:#232323;stroke:color(display-p3 0.1373 0.1373 0.1373);stroke-opacity:1;" stroke-width="17"/>
<path d="M420.914 542.058L425.464 540.745C437.015 537.402 454.82 531.891 472.517 519.682C492.504 505.892 512.615 483.33 522.166 444.851L525.174 432.731L535.888 439.829L617.804 494.101L622.971 497.524L621.318 503.321C604.501 562.293 572.853 597.025 540.51 618.759C508.73 640.116 475.732 649.016 459.192 655.694L450.187 659.331L447.248 650.42L415.032 552.741L412.336 544.566L420.914 542.058Z" fill="white" stroke="#232323" style="fill:white;fill-opacity:1;stroke:#232323;stroke:color(display-p3 0.1373 0.1373 0.1373);stroke-opacity:1;" stroke-width="17"/>
<path d="M479.862 250.942L479.268 250.215C466.276 234.666 421.777 200.755 347.269 194.283L336.883 193.381L339.455 183.722L364.032 91.4036L366.029 83.9023L374.03 85.103C473.935 100.097 551.038 152.06 577.615 176.684L584.953 183.482L576.894 189.489L492.39 252.474L485.318 257.746L479.862 250.942Z" fill="white" stroke="#232323" style="fill:white;fill-opacity:1;stroke:#232323;stroke:color(display-p3 0.1373 0.1373 0.1373);stroke-opacity:1;" stroke-width="17"/>
<path d="M542.265 557.845C511.564 492.267 495.596 456.673 476.742 403.213L469.977 384.027L489.046 392.847C508.37 401.784 519.034 406.303 528.824 409.164C529.302 408.099 529.798 407.007 530.303 405.904C532.193 401.779 534.346 397.157 536.551 391.985C540.954 381.658 545.397 369.512 547.722 356.464C552.311 330.699 548.707 301.576 519.3 275.758L507.747 265.615L522.788 261.351L618.007 234.35L623.502 232.792L627.257 236.93C661.897 275.107 667.383 321.251 663.889 361.125C662.139 381.091 658.123 399.728 654.235 415.332C651.238 427.358 648.491 437.003 646.716 444.453C661.565 449.662 672.527 452.323 691.776 455.602L711.329 458.933L695.708 470.656C674.215 486.785 641.382 510.695 612.739 529.997C598.446 539.629 585.03 548.225 574.529 554.14C569.316 557.076 564.551 559.505 560.622 561.057C558.683 561.822 556.607 562.512 554.588 562.869C552.986 563.153 549.439 563.618 546.023 561.782L543.463 560.406L542.265 557.845Z" fill="white" stroke="#232323" style="fill:white;fill-opacity:1;stroke:#232323;stroke:color(display-p3 0.1373 0.1373 0.1373);stroke-opacity:1;" stroke-width="17"/>
<path d="M449.812 152.105C390.483 196.226 358.115 219.526 308.279 249.763L290.394 260.614L294.813 240.813C299.13 221.47 301.194 210.575 301.851 201.064C277.022 202.371 226.908 214.459 178.098 258.433L170.509 265.27L164.642 257.029L108.575 178.269L104.02 171.869L110.262 166.937C183.494 109.082 268.967 87.2583 309.644 82.5837C311.446 67.3461 311.552 56.5111 310.287 37.694L309.013 18.752L324.648 30.4581C346.161 46.565 378.281 71.3419 404.72 93.328C417.914 104.301 429.846 114.703 438.358 123.042C442.585 127.181 446.188 131.025 448.702 134.302C449.942 135.92 451.137 137.681 451.981 139.47C452.651 140.89 453.969 144.071 452.918 147.679L452.129 150.383L449.812 152.105Z" fill="white" stroke="#232323" style="fill:white;fill-opacity:1;stroke:#232323;stroke:color(display-p3 0.1373 0.1373 0.1373);stroke-opacity:1;" stroke-width="17"/>
<path d="M355.281 473.5C431.425 473.5 493.402 531.573 493.402 603.5C493.402 675.427 431.425 733.5 355.281 733.5C279.137 733.5 217.16 675.427 217.16 603.5C217.16 531.573 279.137 473.5 355.281 473.5Z" fill="white" stroke="#1E1E1E" style="fill:white;fill-opacity:1;stroke:#1E1E1E;stroke:color(display-p3 0.1176 0.1176 0.1176);stroke-opacity:1;" stroke-width="17"/>
<path d="M355.282 705C412.782 705 459.396 660.005 459.396 604.5C459.396 548.995 412.782 504 355.282 504C297.781 504 251.168 548.995 251.168 604.5C251.168 660.005 297.781 705 355.282 705Z" fill="#1E1E1E" style="fill:#1E1E1E;fill:color(display-p3 0.1176 0.1176 0.1176);fill-opacity:1;"/>
<path d="M147.054 100.5C223.199 100.5 285.175 158.573 285.175 230.5C285.175 302.427 223.199 360.5 147.054 360.5C70.9099 360.5 8.93359 302.427 8.93359 230.5C8.93359 158.573 70.9099 100.5 147.054 100.5Z" fill="white" stroke="#1E1E1E" style="fill:white;fill-opacity:1;stroke:#1E1E1E;stroke:color(display-p3 0.1176 0.1176 0.1176);stroke-opacity:1;" stroke-width="17"/>
<path d="M147.055 131.5C204.263 131.5 250.646 176.267 250.646 231.5C250.646 286.733 204.263 331.5 147.055 331.5C89.8489 331.5 43.4648 286.733 43.4648 231.5C43.4648 176.267 89.8489 131.5 147.055 131.5Z" fill="#1E1E1E" stroke="#1E1E1E" style="fill:#1E1E1E;fill:color(display-p3 0.1176 0.1176 0.1176);fill-opacity:1;stroke:#1E1E1E;stroke:color(display-p3 0.1176 0.1176 0.1176);stroke-opacity:1;"/>
<path d="M90.2852 167.551H204.349V190.744C200.854 189.94 197.23 189.445 193.476 189.26C189.787 189.012 185.969 188.889 182.021 188.889H160.956V264.685C160.956 273.343 161.053 281.013 161.248 287.692C161.506 294.372 162.057 299.475 162.898 303H131.348C132.189 299.475 132.707 294.372 132.902 287.692C133.16 281.013 133.29 273.343 133.29 264.685V188.889H112.612C108.729 188.889 104.911 189.012 101.158 189.26C97.4039 189.445 93.7798 189.94 90.2852 190.744V167.551Z" fill="white" style="fill:white;fill-opacity:1;"/>
<mask id="mask1_2357_23" style="mask-type:luminance" maskUnits="userSpaceOnUse" x="78" y="156" width="139" height="158">
<path d="M216.64 156H78.5195V314H216.64V156Z" fill="white" style="fill:white;fill-opacity:1;"/>
<path d="M90.2891 167.551H204.353V190.744C200.858 189.94 197.234 189.445 193.48 189.26C189.791 189.012 185.973 188.889 182.025 188.889H160.96V264.685C160.96 273.343 161.057 281.013 161.252 287.692C161.51 294.372 162.06 299.475 162.902 303H131.352C132.193 299.475 132.711 294.372 132.905 287.692C133.164 281.013 133.294 273.343 133.294 264.685V188.889H112.616C108.733 188.889 104.915 189.012 101.161 189.26C97.4078 189.445 93.7837 189.94 90.2891 190.744V167.551Z" fill="black" style="fill:black;fill-opacity:1;"/>
</mask>
<g mask="url(#mask1_2357_23)">
<path d="M90.2874 167.551V156.551H78.7773V167.551H90.2874ZM204.351 167.551H215.861V156.551H204.351V167.551ZM204.351 190.744L201.657 201.439L215.861 204.707V190.744H204.351ZM193.478 189.26L192.672 200.233L192.778 200.24L192.884 200.245L193.478 189.26ZM160.958 188.889V177.889H149.448V188.889H160.958ZM161.25 287.692L149.744 287.998L149.745 288.049L149.747 288.1L161.25 287.692ZM162.9 303V314H177.331L174.121 300.554L162.9 303ZM131.35 303L120.129 300.554L116.919 314H131.35V303ZM132.904 287.692L121.401 287.285L121.399 287.336L121.398 287.387L132.904 287.692ZM133.292 188.889H144.802V177.889H133.292V188.889ZM101.16 189.26L101.754 200.245L101.853 200.24L101.952 200.234L101.16 189.26ZM90.2874 190.744H78.7773V204.707L92.9813 201.439L90.2874 190.744ZM90.2874 167.551V178.551H204.351V167.551V156.551H90.2874V167.551ZM204.351 167.551H192.841V190.744H204.351H215.861V167.551H204.351ZM204.351 190.744L207.045 180.05C202.831 179.08 198.502 178.493 194.074 178.274L193.478 189.26L192.884 200.245C195.962 200.397 198.882 200.8 201.657 201.439L204.351 190.744ZM193.478 189.26L194.284 178.287C190.31 178.02 186.223 177.889 182.024 177.889V188.889V199.889C185.72 199.889 189.27 200.005 192.672 200.233L193.478 189.26ZM182.024 188.889V177.889H160.958V188.889V199.889H182.024V188.889ZM160.958 188.889H149.448V264.685H160.958H172.468V188.889H160.958ZM160.958 264.685H149.448C149.448 273.417 149.546 281.192 149.744 287.998L161.25 287.692L172.755 287.387C172.564 280.834 172.468 273.27 172.468 264.685H160.958ZM161.25 287.692L149.747 288.1C150.014 294.993 150.595 300.909 151.678 305.446L162.9 303L174.121 300.554C173.522 298.04 173.002 293.751 172.752 287.285L161.25 287.692ZM162.9 303V292H131.35V303V314H162.9V303ZM131.35 303L142.572 305.446C143.667 300.859 144.209 294.902 144.409 287.998L132.904 287.692L121.398 287.387C121.211 293.842 120.717 298.09 120.129 300.554L131.35 303ZM132.904 287.692L144.406 288.1C144.671 281.251 144.802 273.442 144.802 264.685H133.292H121.782C121.782 273.245 121.653 280.774 121.401 287.285L132.904 287.692ZM133.292 264.685H144.802V188.889H133.292H121.782V264.685H133.292ZM133.292 188.889V177.889H112.615V188.889V199.889H133.292V188.889ZM112.615 188.889V177.889C108.476 177.889 104.393 178.021 100.368 178.286L101.16 189.26L101.952 200.234C105.433 200.004 108.988 199.889 112.615 199.889V188.889ZM101.16 189.26L100.565 178.274C96.1361 178.493 91.8077 179.08 87.5934 180.05L90.2874 190.744L92.9813 201.439C95.7565 200.8 98.6764 200.397 101.754 200.245L101.16 189.26ZM90.2874 190.744H101.797V167.551H90.2874H78.7773V190.744H90.2874Z" fill="#232323" style="fill:#232323;fill:color(display-p3 0.1373 0.1373 0.1373);fill-opacity:1;"/>
</g>
<path d="M133.453 208C105.131 208 76.4258 219.41 76.4258 230.5C76.4258 244.031 109.219 255 149.672 255C190.124 255 222.918 244.031 222.918 230.5C222.918 218.762 192.921 208 161.182 208" stroke="#9E9C9C" style="stroke:#9E9C9C;stroke:color(display-p3 0.6202 0.6112 0.6112);stroke-opacity:1;" stroke-width="15"/>
<path d="M580.254 126.5C656.398 126.5 718.375 184.573 718.375 256.5C718.375 328.427 656.398 386.5 580.254 386.5C504.109 386.5 442.133 328.427 442.133 256.5C442.133 184.573 504.109 126.5 580.254 126.5Z" fill="white" stroke="#1E1E1E" style="fill:white;fill-opacity:1;stroke:#1E1E1E;stroke:color(display-p3 0.1176 0.1176 0.1176);stroke-opacity:1;" stroke-width="17"/>
<path d="M580.251 157.5C637.458 157.5 683.842 202.267 683.842 257.5C683.842 312.733 637.458 357.5 580.251 357.5C523.045 357.5 476.66 312.733 476.66 257.5C476.66 202.267 523.045 157.5 580.251 157.5Z" fill="#1E1E1E" stroke="#1E1E1E" style="fill:#1E1E1E;fill:color(display-p3 0.1176 0.1176 0.1176);fill-opacity:1;stroke:#1E1E1E;stroke:color(display-p3 0.1176 0.1176 0.1176);stroke-opacity:1;"/>
<path d="M372.742 523.5V538.784C377.636 539.164 382.506 539.767 387.351 540.594L388.541 540.79C394.474 541.801 400.098 543.184 405.404 544.945L409.608 546.341L408.387 550.431L402.664 569.591L401.332 574.054L396.705 572.643C388.638 570.182 380.651 568.545 372.742 567.714V590.863C385.891 594.193 396.021 598.457 402.597 603.93C409.976 610.07 413.668 618.118 413.668 627.686C413.668 638.599 409.834 647.875 402.054 655.148L402.055 655.149C395.083 661.682 385.138 665.752 372.742 667.759V685.5H342.551V668.888C336.532 668.499 330.392 667.749 324.132 666.635L324.123 666.633C316.835 665.322 309.523 663.51 302.188 661.202L300.72 660.734L296.109 659.243L297.822 654.889L305.286 635.914L306.895 631.821L311.223 633.241L313.289 633.904C318.133 635.425 323.171 636.765 328.406 637.923L329.52 638.16C333.654 639.012 337.997 639.627 342.551 640.004V614.478C332.606 612.339 324.424 609.699 318.157 606.471L318.129 606.457L318.103 606.442C311.284 602.818 306.035 598.529 302.893 593.399C299.921 588.55 298.392 583.358 298.392 577.89C298.392 566.896 302.806 557.788 311.576 550.979L311.585 550.972L311.595 550.964C319.407 544.963 329.844 541.238 342.551 539.484V523.5H372.742ZM372.742 636.107C373.359 635.673 373.868 635.22 374.284 634.756L374.293 634.745L374.304 634.734C375.755 633.134 376.51 631.237 376.51 628.797C376.51 626.773 375.875 625.373 374.735 624.253L374.702 624.22L374.668 624.187C374.217 623.725 373.586 623.227 372.742 622.71V636.107ZM342.551 569.736C340.886 570.363 339.729 571.07 338.963 571.776C337.616 573.035 336.917 574.56 336.917 576.686C336.917 577.953 337.197 578.858 337.609 579.545C337.976 580.098 338.788 580.905 340.473 581.826C341.077 582.141 341.77 582.463 342.551 582.796V569.736Z" fill="white" stroke="#232323" style="fill:white;fill-opacity:1;stroke:#232323;stroke:color(display-p3 0.1373 0.1373 0.1373);stroke-opacity:1;" stroke-width="9"/>
<path d="M596.327 179.323L589.783 200.33L591.503 200.819L597.486 184.609L599.142 180.124L621.525 186.492L615.094 207.137C627.849 210.594 638.048 218.812 641.694 229.073C643.824 235.07 643.626 241.63 640.403 247.858C638.088 252.331 634.323 256.428 629.124 260.001C634.081 264.723 637.195 270.167 638.408 275.874C640.049 283.593 638.114 291.352 633.311 297.713C624.29 309.661 605.928 316.061 582.752 310.958L576.629 330.615L554.548 324.332L560.624 304.827L558.603 304.252L552.526 323.757L530.446 317.475L536.632 297.616L514.392 289.48L508.598 287.359L511.764 282.259L518.946 270.691L521.029 267.338L533.07 270.764L551.43 211.828L532.258 206.373L538.671 185.787L568.252 194.203L574.796 173.197L596.327 179.323ZM590.611 267.363C585.119 264.358 578 262.147 571.956 260.805L565.075 280.256C570.52 282.049 577.264 283.655 583.42 283.934C591.827 284.315 596.503 282.247 598.14 278.263C598.972 276.239 598.7 274.672 597.65 273.073C596.434 271.223 594.08 269.26 590.611 267.363ZM596.156 227.867C592.442 225.923 587.747 224.673 583.603 224L578.89 239.13C583.11 240.623 588.117 241.878 592.528 242.019C595.507 242.115 597.729 241.686 599.206 240.918C600.469 240.262 601.496 239.216 602.006 237.112C602.538 234.919 602.131 233.358 601.288 232.059C600.351 230.61 598.653 229.174 596.156 227.867Z" fill="white" stroke="#232323" style="fill:white;fill-opacity:1;stroke:#232323;stroke:color(display-p3 0.1373 0.1373 0.1373);stroke-opacity:1;" stroke-width="10"/>
</g>
</g>
<defs>
<clipPath id="clip0_2357_23">
<rect width="714" height="742" fill="white" style="fill:white;fill-opacity:1;"/>
</clipPath>
</defs>
</svg>
