<svg width="64" height="64" viewBox="0 0 64 64" fill="none" xmlns="http://www.w3.org/2000/svg">
<g clip-path="url(#clip0_2005_37)">
<path d="M62.8252 23.8232C63.508 26.4244 63.874 29.1543 63.874 31.9697C63.874 49.6428 49.5471 63.9697 31.874 63.9697C28.5268 63.9697 25.3001 63.4542 22.2676 62.501C32.3197 60.2752 41.0455 55.1676 47.9443 48.377C54.9071 41.5232 60.0464 32.9155 62.8252 23.8232ZM52.2188 7.26953C53.9842 8.72538 55.5907 10.3669 57.0088 12.1641C56.0396 23.0779 50.8301 34.3098 42.332 42.6748C34.2888 50.5921 23.3687 55.8675 10.4326 55.7227C9.08571 54.5061 7.84181 53.1776 6.71777 51.75C16.3658 50.2502 25.0262 46.0779 32.1709 40.2285C42.4929 31.7778 49.7284 19.7613 52.2188 7.26953ZM38.7559 0.713867C40.8758 1.17851 42.9168 1.85281 44.8564 2.71484C43.405 14.2491 36.9798 25.9516 27.1025 34.0381C20.2664 39.6348 11.8223 43.4574 2.30371 44.2188C1.40362 42.0483 0.736218 39.7575 0.331055 37.377C5.70062 35.8957 10.7437 33.5793 15.3271 30.6182C26.3394 23.5037 34.7821 12.6186 38.7559 0.713867ZM30.5137 0C26.9282 9.36902 20.0285 18.0567 10.9863 23.8984C7.59384 26.0902 3.90965 27.8719 0 29.1309C1.39758 13.2332 14.4186 0.673163 30.5137 0Z" fill="#5D00FF" style="fill:#5D00FF;fill:color(display-p3 0.3647 0.0000 1.0000);fill-opacity:1;"/>
<path d="M4 22H12.7711L21.5422 38.9L28.2892 22H36.3855L43.1325 38.9L52.5783 22H60L46.506 48H38.4096L32.3373 32.4L26.2651 48H18.1687L4 22Z" fill="white" style="fill:white;fill-opacity:1;"/>
</g>
<defs>
<clipPath id="clip0_2005_37">
<rect width="64" height="64" fill="white" style="fill:white;fill-opacity:1;"/>
</clipPath>
</defs>
</svg>
