<svg width="3197" height="742" viewBox="0 0 3197 742" fill="none" xmlns="http://www.w3.org/2000/svg">
<path d="M1797 155V272.5H2212.5L1797 562V692H2422.5V571H2006.5L2422.5 288.5V155H1797Z" fill="white" style="fill:white;fill-opacity:1;"/>
<path fill-rule="evenodd" clip-rule="evenodd" d="M3032 692H3197L2897 155H2730L2429.5 689L2591.5 692L2644.5 589H2979.5L3032 692ZM2807 288.5L2702 470H2912.5L2807 288.5Z" fill="white" style="fill:white;fill-opacity:1;"/>
<path d="M1121.5 155L839 692H677L563.5 377L448 692H290L0 155H170.5L348.5 507L478 155H650.5L771.5 507L959.5 155H1121.5Z" fill="white" style="fill:white;fill-opacity:1;"/>
</svg>
