<svg width="698" height="742" viewBox="0 0 698 742" fill="none" xmlns="http://www.w3.org/2000/svg">
<g clip-path="url(#clip0_2027_141)">
<path d="M155.074 287.565L154.608 288.361C144.736 305.637 128.902 357.673 149.151 426.245L151.974 435.804L142.089 437.083L47.6169 449.303L39.9405 450.295L38.236 442.745C16.9547 348.469 38.0748 260.812 51.5933 228.121L55.3253 219.096L63.75 224.039L152.082 275.87L159.475 280.208L155.074 287.565Z" fill="white" stroke="#232323" style="fill:white;fill-opacity:1;stroke:#232323;stroke:color(display-p3 0.1373 0.1373 0.1373);stroke-opacity:1;" stroke-width="17"/>
<path d="M61.2905 381.646C127.664 409.142 163.205 424.524 213.026 450.992L230.905 460.491L211.603 466.603C192.747 472.573 182.301 476.242 173.721 480.395C186.582 500.379 220.755 536.045 282.034 554.874L291.561 557.801L287.167 566.747L245.167 652.247L241.753 659.194L234.518 656.444C149.639 624.182 90.3054 563.948 67.0337 532.459C52.9348 538.49 43.4651 543.756 27.7026 554.104L11.8354 564.521L14.6304 545.747C18.476 519.915 24.8502 480.984 31.481 448.153C34.7901 431.769 38.2004 416.715 41.4302 405.522C43.0334 399.966 44.6737 395.073 46.3364 391.365C47.1571 389.535 48.1243 387.672 49.2808 386.087C50.1988 384.829 52.3426 382.161 55.9761 381.253L58.6987 380.572L61.2905 381.646Z" fill="white" stroke="#232323" style="fill:white;fill-opacity:1;stroke:#232323;stroke:color(display-p3 0.1373 0.1373 0.1373);stroke-opacity:1;" stroke-width="17"/>
<path d="M402.261 542.059L406.609 540.746C417.648 537.403 434.664 531.892 451.577 519.683C470.678 505.893 489.898 483.331 499.026 444.852L501.901 432.732L512.14 439.83L590.426 494.102L595.364 497.525L593.784 503.322C577.712 562.294 547.467 597.026 516.557 618.76C486.185 640.117 454.65 649.017 438.843 655.695L430.237 659.332L427.428 650.421L396.64 552.742L394.063 544.567L402.261 542.059Z" fill="white" stroke="#232323" style="fill:white;fill-opacity:1;stroke:#232323;stroke:color(display-p3 0.1373 0.1373 0.1373);stroke-opacity:1;" stroke-width="17"/>
<path d="M458.597 250.942L458.029 250.215C445.613 234.666 403.086 200.755 331.88 194.283L321.954 193.381L324.412 183.722L347.9 91.4039L349.809 83.9026L357.455 85.1033C452.933 100.097 526.619 152.06 552.018 176.684L559.031 183.482L551.329 189.489L470.57 252.474L463.811 257.746L458.597 250.942Z" fill="white" stroke="#232323" style="fill:white;fill-opacity:1;stroke:#232323;stroke:color(display-p3 0.1373 0.1373 0.1373);stroke-opacity:1;" stroke-width="17"/>
<path d="M518.234 557.845C488.893 492.267 473.633 456.673 455.615 403.213L449.149 384.027L467.373 392.847C485.841 401.784 496.032 406.303 505.389 409.164C505.845 408.099 506.319 407.007 506.802 405.904C508.608 401.779 510.666 397.157 512.773 391.985C516.981 381.658 521.227 369.512 523.449 356.464C527.835 330.699 524.39 301.576 496.287 275.758L485.246 265.615L499.62 261.351L590.619 234.35L595.871 232.792L599.459 236.93C632.564 275.107 637.807 321.251 634.468 361.125C632.796 381.091 628.958 399.728 625.242 415.332C622.378 427.358 619.752 437.003 618.056 444.453C632.247 449.662 642.723 452.323 661.119 455.602L679.806 458.933L664.877 470.656C644.336 486.785 612.958 510.695 585.585 529.997C571.925 539.629 559.104 548.225 549.068 554.14C544.086 557.076 539.532 559.505 535.777 561.057C533.924 561.822 531.94 562.512 530.011 562.869C528.48 563.153 525.09 563.618 521.825 561.782L519.379 560.406L518.234 557.845Z" fill="white" stroke="#232323" style="fill:white;fill-opacity:1;stroke:#232323;stroke:color(display-p3 0.1373 0.1373 0.1373);stroke-opacity:1;" stroke-width="17"/>
<path d="M429.876 152.105C373.176 196.226 342.243 219.526 294.615 249.763L277.523 260.614L281.746 240.813C285.872 221.47 287.844 210.575 288.472 201.064C264.743 202.371 216.85 214.459 170.203 258.433L162.951 265.27L157.344 257.029L103.761 178.269L99.4076 171.869L105.373 166.937C175.36 109.082 257.045 87.2585 295.92 82.5839C297.642 67.3463 297.743 56.5113 296.534 37.6942L295.317 18.7522L310.259 30.4583C330.818 46.5652 361.515 71.3421 386.782 93.3282C399.392 104.301 410.795 114.703 418.93 123.042C422.969 127.181 426.413 131.025 428.815 134.302C430 135.92 431.142 137.681 431.949 139.47C432.589 140.89 433.849 144.071 432.844 147.679L432.09 150.383L429.876 152.105Z" fill="white" stroke="#232323" style="fill:white;fill-opacity:1;stroke:#232323;stroke:color(display-p3 0.1373 0.1373 0.1373);stroke-opacity:1;" stroke-width="17"/>
<path d="M339.538 473.5C412.308 473.5 471.538 531.573 471.538 603.5C471.538 675.427 412.308 733.5 339.538 733.5C266.768 733.5 207.538 675.427 207.538 603.5C207.538 531.573 266.768 473.5 339.538 473.5Z" fill="white" stroke="#1E1E1E" style="fill:white;fill-opacity:1;stroke:#1E1E1E;stroke:color(display-p3 0.1176 0.1176 0.1176);stroke-opacity:1;" stroke-width="17"/>
<ellipse cx="339.538" cy="604.5" rx="99.5" ry="100.5" fill="#1E1E1E" style="fill:#1E1E1E;fill:color(display-p3 0.1176 0.1176 0.1176);fill-opacity:1;"/>
<path d="M140.538 100.5C213.308 100.5 272.538 158.573 272.538 230.5C272.538 302.427 213.308 360.5 140.538 360.5C67.7679 360.5 8.53809 302.427 8.53809 230.5C8.53809 158.573 67.7679 100.5 140.538 100.5Z" fill="white" stroke="#1E1E1E" style="fill:white;fill-opacity:1;stroke:#1E1E1E;stroke:color(display-p3 0.1176 0.1176 0.1176);stroke-opacity:1;" stroke-width="17"/>
<path d="M140.538 131.5C195.21 131.5 239.538 176.267 239.538 231.5C239.538 286.733 195.21 331.5 140.538 331.5C85.8666 331.5 41.5381 286.733 41.5381 231.5C41.5381 176.267 85.8666 131.5 140.538 131.5Z" fill="#1E1E1E" stroke="#1E1E1E" style="fill:#1E1E1E;fill:color(display-p3 0.1176 0.1176 0.1176);fill-opacity:1;stroke:#1E1E1E;stroke:color(display-p3 0.1176 0.1176 0.1176);stroke-opacity:1;"/>
<mask id="path-11-outside-1_2027_141" maskUnits="userSpaceOnUse" x="75.0381" y="156" width="132" height="158" fill="black">
<rect fill="white" x="75.0381" y="156" width="132" height="158"/>
<path d="M86.2852 167.551H195.294V190.744C191.954 189.94 188.491 189.445 184.903 189.26C181.378 189.012 177.729 188.889 173.956 188.889H153.824V264.685C153.824 273.343 153.917 281.013 154.103 287.692C154.35 294.372 154.876 299.475 155.68 303H125.528C126.332 299.475 126.827 294.372 127.013 287.692C127.26 281.013 127.384 273.343 127.384 264.685V188.889H107.623C103.912 188.889 100.263 189.012 96.6758 189.26C93.0885 189.445 89.625 189.94 86.2852 190.744V167.551Z"/>
</mask>
<path d="M86.2852 167.551H195.294V190.744C191.954 189.94 188.491 189.445 184.903 189.26C181.378 189.012 177.729 188.889 173.956 188.889H153.824V264.685C153.824 273.343 153.917 281.013 154.103 287.692C154.35 294.372 154.876 299.475 155.68 303H125.528C126.332 299.475 126.827 294.372 127.013 287.692C127.26 281.013 127.384 273.343 127.384 264.685V188.889H107.623C103.912 188.889 100.263 189.012 96.6758 189.26C93.0885 189.445 89.625 189.94 86.2852 190.744V167.551Z" fill="white" style="fill:white;fill-opacity:1;"/>
<path d="M86.2852 167.551V156.551H75.2852V167.551H86.2852ZM195.294 167.551H206.294V156.551H195.294V167.551ZM195.294 190.744L192.719 201.439L206.294 204.707V190.744H195.294ZM184.903 189.26L184.133 200.233L184.234 200.24L184.335 200.245L184.903 189.26ZM153.824 188.889V177.889H142.824V188.889H153.824ZM154.103 287.692L143.107 287.998L143.108 288.049L143.11 288.1L154.103 287.692ZM155.68 303V314H169.471L166.404 300.554L155.68 303ZM125.528 303L114.804 300.554L111.737 314H125.528V303ZM127.013 287.692L116.02 287.285L116.018 287.336L116.017 287.387L127.013 287.692ZM127.384 188.889H138.384V177.889H127.384V188.889ZM96.6758 189.26L97.244 200.245L97.3383 200.24L97.4326 200.234L96.6758 189.26ZM86.2852 190.744H75.2852V204.707L88.8597 201.439L86.2852 190.744ZM86.2852 167.551V178.551H195.294V167.551V156.551H86.2852V167.551ZM195.294 167.551H184.294V190.744H195.294H206.294V167.551H195.294ZM195.294 190.744L197.869 180.05C193.841 179.08 189.704 178.493 185.472 178.274L184.903 189.26L184.335 200.245C187.277 200.397 190.067 200.8 192.719 201.439L195.294 190.744ZM184.903 189.26L185.673 178.287C181.875 178.02 177.969 177.889 173.956 177.889V188.889V199.889C177.489 199.889 180.881 200.005 184.133 200.233L184.903 189.26ZM173.956 188.889V177.889H153.824V188.889V199.889H173.956V188.889ZM153.824 188.889H142.824V264.685H153.824H164.824V188.889H153.824ZM153.824 264.685H142.824C142.824 273.417 142.918 281.192 143.107 287.998L154.103 287.692L165.098 287.387C164.916 280.834 164.824 273.27 164.824 264.685H153.824ZM154.103 287.692L143.11 288.1C143.365 294.993 143.92 300.909 144.955 305.446L155.68 303L166.404 300.554C165.831 298.04 165.334 293.751 165.095 287.285L154.103 287.692ZM155.68 303V292H125.528V303V314H155.68V303ZM125.528 303L136.253 305.446C137.299 300.859 137.817 294.902 138.008 287.998L127.013 287.692L116.017 287.387C115.838 293.842 115.366 298.09 114.804 300.554L125.528 303ZM127.013 287.692L138.005 288.1C138.259 281.251 138.384 273.442 138.384 264.685H127.384H116.384C116.384 273.245 116.261 280.774 116.02 287.285L127.013 287.692ZM127.384 264.685H138.384V188.889H127.384H116.384V264.685H127.384ZM127.384 188.889V177.889H107.623V188.889V199.889H127.384V188.889ZM107.623 188.889V177.889C103.668 177.889 99.766 178.021 95.919 178.286L96.6758 189.26L97.4326 200.234C100.76 200.004 104.157 199.889 107.623 199.889V188.889ZM96.6758 189.26L96.1076 178.274C91.8747 178.493 87.7381 179.08 83.7106 180.05L86.2852 190.744L88.8597 201.439C91.5119 200.8 94.3024 200.397 97.244 200.245L96.6758 189.26ZM86.2852 190.744H97.2852V167.551H86.2852H75.2852V190.744H86.2852Z" fill="#232323" style="fill:#232323;fill:color(display-p3 0.1373 0.1373 0.1373);fill-opacity:1;" mask="url(#path-11-outside-1_2027_141)"/>
<path d="M127.538 208C100.471 208 73.0381 219.41 73.0381 230.5C73.0381 244.031 104.378 255 143.038 255C181.698 255 213.038 244.031 213.038 230.5C213.038 218.762 184.371 208 154.038 208" stroke="#9E9C9C" style="stroke:#9E9C9C;stroke:color(display-p3 0.6202 0.6112 0.6112);stroke-opacity:1;" stroke-width="15"/>
<path d="M554.538 126.5C627.308 126.5 686.538 184.573 686.538 256.5C686.538 328.427 627.308 386.5 554.538 386.5C481.768 386.5 422.538 328.427 422.538 256.5C422.538 184.573 481.768 126.5 554.538 126.5Z" fill="white" stroke="#1E1E1E" style="fill:white;fill-opacity:1;stroke:#1E1E1E;stroke:color(display-p3 0.1176 0.1176 0.1176);stroke-opacity:1;" stroke-width="17"/>
<path d="M554.538 157.5C609.21 157.5 653.538 202.267 653.538 257.5C653.538 312.733 609.21 357.5 554.538 357.5C499.867 357.5 455.538 312.733 455.538 257.5C455.538 202.267 499.867 157.5 554.538 157.5Z" fill="#1E1E1E" stroke="#1E1E1E" style="fill:#1E1E1E;fill:color(display-p3 0.1176 0.1176 0.1176);fill-opacity:1;stroke:#1E1E1E;stroke:color(display-p3 0.1176 0.1176 0.1176);stroke-opacity:1;"/>
<path d="M356.226 523.5V538.784C360.903 539.164 365.557 539.767 370.187 540.594L371.324 540.79C376.995 541.801 382.369 543.184 387.44 544.945L391.458 546.341L390.291 550.431L384.822 569.591L383.549 574.054L379.127 572.643C371.417 570.182 363.784 568.545 356.226 567.714V590.863C368.792 594.193 378.473 598.457 384.758 603.93C391.81 610.07 395.338 618.118 395.338 627.686C395.338 638.599 391.674 647.875 384.239 655.148L384.24 655.149C377.577 661.682 368.072 665.752 356.226 667.759V685.5H327.373V668.888C321.62 668.499 315.752 667.749 309.77 666.635L309.761 666.633C302.796 665.322 295.808 663.51 288.798 661.202L287.395 660.734L282.989 659.243L284.626 654.889L291.759 635.914L293.297 631.821L297.433 633.241L299.407 633.904C304.037 635.425 308.851 636.765 313.854 637.923L314.919 638.16C318.87 639.012 323.02 639.627 327.373 640.004V614.478C317.868 612.339 310.049 609.699 304.06 606.471L304.033 606.457L304.008 606.442C297.491 602.818 292.475 598.529 289.472 593.399C286.632 588.55 285.17 583.358 285.17 577.89C285.17 566.896 289.389 557.788 297.77 550.979L297.779 550.972L297.788 550.964C305.254 544.963 315.229 541.238 327.373 539.484V523.5H356.226ZM356.226 636.107C356.815 635.673 357.302 635.22 357.699 634.756L357.708 634.745L357.718 634.734C359.105 633.134 359.827 631.237 359.827 628.797C359.827 626.773 359.22 625.373 358.13 624.253L358.099 624.22L358.066 624.187C357.635 623.725 357.032 623.227 356.226 622.71V636.107ZM327.373 569.736C325.781 570.363 324.676 571.07 323.944 571.776C322.656 573.035 321.988 574.56 321.988 576.686C321.988 577.953 322.256 578.858 322.65 579.545C323 580.098 323.776 580.905 325.387 581.826C325.964 582.141 326.626 582.463 327.373 582.796V569.736Z" fill="white" stroke="#232323" style="fill:white;fill-opacity:1;stroke:#232323;stroke:color(display-p3 0.1373 0.1373 0.1373);stroke-opacity:1;" stroke-width="9"/>
<path d="M569.898 179.324L563.644 200.331L565.287 200.82L571.005 184.61L572.588 180.125L593.979 186.493L587.833 207.138C600.023 210.595 609.77 218.813 613.254 229.074C615.29 235.071 615.1 241.631 612.02 247.859C609.808 252.332 606.21 256.429 601.241 260.002C605.978 264.724 608.954 270.168 610.114 275.875C611.682 283.594 609.833 291.353 605.243 297.714C596.621 309.662 579.073 316.062 556.924 310.959L551.072 330.616L529.97 324.333L535.777 304.828L533.845 304.253L528.038 323.758L506.936 317.476L512.848 297.617L491.594 289.481L486.056 287.36L489.082 282.26L495.946 270.692L497.936 267.339L509.444 270.765L526.99 211.829L508.668 206.374L514.797 185.788L543.067 194.204L549.321 173.198L569.898 179.324ZM564.435 267.364C559.186 264.359 552.383 262.148 546.607 260.806L540.03 280.257C545.234 282.05 551.679 283.656 557.563 283.935C565.597 284.316 570.066 282.248 571.63 278.264C572.425 276.24 572.165 274.673 571.162 273.074C570 271.224 567.75 269.261 564.435 267.364ZM569.734 227.868C566.185 225.924 561.698 224.674 557.737 224.001L553.233 239.131C557.266 240.624 562.051 241.879 566.267 242.02C569.114 242.116 571.237 241.687 572.649 240.919C573.856 240.263 574.837 239.217 575.325 237.113C575.833 234.92 575.444 233.359 574.639 232.06C573.743 230.611 572.12 229.175 569.734 227.868Z" fill="white" stroke="#232323" style="fill:white;fill-opacity:1;stroke:#232323;stroke:color(display-p3 0.1373 0.1373 0.1373);stroke-opacity:1;" stroke-width="10"/>
</g>
<defs>
<clipPath id="clip0_2027_141">
<rect width="698" height="742" fill="white" style="fill:white;fill-opacity:1;"/>
</clipPath>
</defs>
</svg>
