<svg width="34" height="28" viewBox="0 0 34 28" fill="none" xmlns="http://www.w3.org/2000/svg">
<path d="M25.8889 27C25.8889 24.1281 21.9092 21.8 17 21.8C12.0908 21.8 8.11111 24.1281 8.11111 27M33 21.8006C33 19.6683 30.8061 17.8358 27.6667 17.0333M1 21.8006C1 19.6683 3.19395 17.8358 6.33333 17.0333M27.6667 10.0759C28.7578 9.12376 29.4444 7.74007 29.4444 6.2C29.4444 3.32812 27.0566 1 24.1111 1C22.7451 1 21.4991 1.50068 20.5556 2.32408M6.33333 10.0759C5.24222 9.12376 4.55556 7.74007 4.55556 6.2C4.55556 3.32812 6.94337 1 9.88889 1C11.2549 1 12.5009 1.50068 13.4444 2.32408M17 16.6C14.0545 16.6 11.6667 14.2719 11.6667 11.4C11.6667 8.52812 14.0545 6.2 17 6.2C19.9455 6.2 22.3333 8.52812 22.3333 11.4C22.3333 14.2719 19.9455 16.6 17 16.6Z" stroke="white" style="stroke:white;stroke-opacity:1;" stroke-width="2" stroke-linecap="round" stroke-linejoin="round"/>
</svg>
