<svg width="25" height="25" viewBox="0 0 25 25" fill="none" xmlns="http://www.w3.org/2000/svg">
<path d="M12.5073 2.2523C15.8491 2.2523 16.2449 2.26695 17.5591 2.32558C18.7805 2.37932 19.4401 2.58452 19.8798 2.75552C20.4612 2.98026 20.8814 3.25386 21.3162 3.68868C21.7559 4.1284 22.0246 4.54368 22.2494 5.12507C22.4204 5.56478 22.6256 6.22923 22.6793 7.44577C22.7379 8.7649 22.7526 9.16064 22.7526 12.4976C22.7526 15.8394 22.7379 16.2351 22.6793 17.5493C22.6256 18.7708 22.4204 19.4303 22.2494 19.87C22.0246 20.4514 21.751 20.8716 21.3162 21.3064C20.8765 21.7461 20.4612 22.0149 19.8798 22.2396C19.4401 22.4106 18.7757 22.6158 17.5591 22.6695C16.24 22.7282 15.8442 22.7428 12.5073 22.7428C9.16553 22.7428 8.76979 22.7282 7.45554 22.6695C6.23412 22.6158 5.57456 22.4106 5.13484 22.2396C4.55345 22.0149 4.13328 21.7413 3.69846 21.3064C3.25875 20.8667 2.99003 20.4514 2.76529 19.87C2.59429 19.4303 2.3891 18.7659 2.33535 17.5493C2.27672 16.2302 2.26207 15.8345 2.26207 12.4976C2.26207 9.15575 2.27672 8.76001 2.33535 7.44577C2.3891 6.22435 2.59429 5.56478 2.76529 5.12507C2.99003 4.54368 3.26363 4.12351 3.69846 3.68868C4.13817 3.24897 4.55345 2.98026 5.13484 2.75552C5.57456 2.58452 6.23901 2.37932 7.45554 2.32558C8.76979 2.26695 9.16553 2.2523 12.5073 2.2523ZM12.5073 0C9.11178 0 8.68673 0.014657 7.35294 0.0732851C6.02404 0.131913 5.11042 0.346883 4.31894 0.65468C3.49326 0.977135 2.79461 1.40219 2.10084 2.10084C1.40219 2.79461 0.977135 3.49326 0.65468 4.31405C0.346883 5.11042 0.131913 6.01915 0.0732851 7.34805C0.014657 8.68673 0 9.11178 0 12.5073C0 15.9029 0.014657 16.3279 0.0732851 17.6617C0.131913 18.9906 0.346883 19.9042 0.65468 20.6957C0.977135 21.5214 1.40219 22.22 2.10084 22.9138C2.79461 23.6076 3.49326 24.0375 4.31405 24.3551C5.11042 24.6629 6.01915 24.8779 7.34806 24.9365C8.68184 24.9951 9.1069 25.0098 12.5024 25.0098C15.898 25.0098 16.323 24.9951 17.6568 24.9365C18.9857 24.8779 19.8994 24.6629 20.6908 24.3551C21.5116 24.0375 22.2103 23.6076 22.904 22.9138C23.5978 22.22 24.0278 21.5214 24.3453 20.7006C24.6531 19.9042 24.8681 18.9955 24.9267 17.6666C24.9853 16.3328 25 15.9078 25 12.5122C25 9.11667 24.9853 8.69162 24.9267 7.35783C24.8681 6.02892 24.6531 5.1153 24.3453 4.32382C24.0375 3.49326 23.6125 2.79461 22.9138 2.10084C22.2201 1.40707 21.5214 0.977135 20.7006 0.659566C19.9042 0.351769 18.9955 0.136799 17.6666 0.0781708C16.3279 0.014657 15.9029 0 12.5073 0Z" fill="white" style="fill:white;fill-opacity:1;"/>
<path d="M20.6854 5.82803C20.6854 6.65859 20.0111 7.32793 19.1854 7.32793C18.3549 7.32793 17.6855 6.65371 17.6855 5.82803C17.6855 4.99746 18.3598 4.32812 19.1854 4.32812C20.0111 4.32812 20.6854 5.00235 20.6854 5.82803Z" fill="white" style="fill:white;fill-opacity:1;"/>
<path d="M12.5086 6.08398C8.96165 6.08398 6.08398 8.96165 6.08398 12.5086C6.08398 16.0556 8.96165 18.9333 12.5086 18.9333C16.0556 18.9333 18.9333 16.0556 18.9333 12.5086C18.9333 8.96165 16.0556 6.08398 12.5086 6.08398ZM12.5086 16.6761C10.2075 16.6761 8.34117 14.8098 8.34117 12.5086C8.34117 10.2075 10.2075 8.34117 12.5086 8.34117C14.8098 8.34117 16.6761 10.2075 16.6761 12.5086C16.6761 14.8098 14.8098 16.6761 12.5086 16.6761Z" fill="white" style="fill:white;fill-opacity:1;"/>
</svg>
